<svg xmlns="http://www.w3.org/2000/svg" xmlns:xlink="http://www.w3.org/1999/xlink" width="500" zoomAndPan="magnify" viewBox="0 0 375 374.999991" height="500" preserveAspectRatio="xMidYMid meet" version="1.0"><defs><g/></defs><path stroke-linecap="butt" transform="matrix(0.905263, 0, 0, 0.905263, 10.498371, -24.331634)" fill="none" stroke-linejoin="miter" d="M 233.812386 281.418013 L 208.090417 281.418013 C 200.004027 296.119363 188.979093 308.205798 174.933629 316.861773 C 160.88385 325.927678 145.202985 330.255666 128.464935 330.255666 C 103.390222 330.255666 81.99624 321.189761 64.192374 302.488366 C 46.794122 284.766486 38.46609 263.044561 38.46609 237.564234 C 38.46609 212.165893 46.794122 190.439653 64.192374 172.394145 C 72.274449 163.979812 81.99624 157.282866 93.021174 152.303306 C 103.718165 147.319432 114.415156 144.626845 125.116462 144.626845 C 135.485509 144.626845 144.469428 145.934303 152.555818 148.303262 C 176.974644 155.651779 195.348096 170.35313 207.762474 192.808612 L 233.488758 192.808612 C 224.828468 171.332644 211.110947 153.934392 191.999623 140.622486 C 172.646657 127.232908 151.494318 120.535962 128.464935 120.535962 C 96.693276 120.535962 69.905491 132.212468 47.855623 155.323836 C 37.486575 166.025142 29.400186 178.763148 23.76474 192.808612 C 17.72368 206.858391 15.026778 221.883369 15.026778 237.564234 C 15.026778 269.741507 25.723769 296.770934 47.855623 319.558675 C 69.905491 342.997986 96.693276 354.346549 128.464935 354.346549 C 151.494318 354.346549 172.646657 347.649602 192.327566 334.260025 C 211.43889 320.866133 225.156411 303.467881 233.812386 281.418013 Z M 250.554752 144.626845 L 305.761408 144.626845 L 305.761408 350.346504 L 329.118733 350.346504 L 329.118733 144.626845 L 384.325389 144.626845 L 384.325389 122.900606 L 250.554752 122.900606 Z M 250.554752 144.626845 " stroke="#ffffff" stroke-width="29.269888" stroke-opacity="1" stroke-miterlimit="4"/><g fill="#000000" fill-opacity="1"><g transform="translate(10.498371, 293.415805)"><g><path d="M 211.671875 -62.988281 L 188.355469 -62.988281 C 181.085938 -49.664062 171.09375 -38.761719 158.375 -30.886719 C 145.65625 -22.710938 131.421875 -18.773438 116.28125 -18.773438 C 93.570312 -18.773438 74.191406 -26.949219 58.140625 -43.910156 C 42.394531 -59.957031 34.824219 -79.640625 34.824219 -102.65625 C 34.824219 -125.671875 42.394531 -145.351562 58.140625 -161.707031 C 65.410156 -169.277344 74.191406 -175.332031 84.183594 -179.875 C 93.875 -184.417969 103.5625 -186.839844 113.253906 -186.839844 C 122.640625 -186.839844 130.816406 -185.628906 138.085938 -183.507812 C 160.191406 -176.847656 176.847656 -163.523438 188.050781 -143.234375 L 211.367188 -143.234375 C 203.496094 -162.613281 191.078125 -178.359375 173.820312 -190.472656 C 156.253906 -202.585938 137.175781 -208.644531 116.28125 -208.644531 C 87.515625 -208.644531 63.289062 -198.042969 43.304688 -177.148438 C 33.914062 -167.460938 26.648438 -155.953125 21.5 -143.234375 C 16.050781 -130.515625 13.625 -116.886719 13.625 -102.65625 C 13.625 -73.585938 23.316406 -49.058594 43.304688 -28.464844 C 63.289062 -7.269531 87.515625 3.027344 116.28125 3.027344 C 137.175781 3.027344 156.253906 -3.027344 174.121094 -15.140625 C 191.382812 -27.253906 203.796875 -43 211.671875 -62.988281 Z M 211.671875 -62.988281 "/></g></g></g><g fill="#000000" fill-opacity="1"><g transform="translate(231.253494, 293.415805)"><g><path d="M 6.054688 -186.839844 L 56.023438 -186.839844 L 56.023438 -0.605469 L 77.21875 -0.605469 L 77.21875 -186.839844 L 127.183594 -186.839844 L 127.183594 -206.523438 L 6.054688 -206.523438 Z M 6.054688 -186.839844 "/></g></g></g></svg>